# xmcd
#
# Track frame offsets:
#	150
#	9344
#	20818
#	32132
#	41949
#	51512
#	66440
#	77320
#	89542
#	98604
#	108348
#	121360
#	133922
#	146887
#	159724
#	170646
#	183115
#	196278
#	207833
#	220451
#
# Disc length: 3086 seconds
#
# Revision: 1
# Processed by: cddbd v1.5.2PL0 Copyright (c) Steve Scherf et al.
# Submitted via: audiograbber 1.83.01
#
DISCID=290c0c14
DTITLE=Professor Longhair - No buts, No Maybes
DYEAR=1957
DGENRE=New Orleans R&B
TTITLE0=Rockin' With Fess
TTITLE1=In The Night
TTITLE2=Look What You're Doin' To Me
TTITLE3=No Buts, No Maybes
TTITLE4=Lokka No Hair
TTITLE5=Ball The Wall
TTITLE6=Tipitina
TTITLE7=Between The Night And Day
TTITLE8=Misery
TTITLE9=Baby Let Me Hold Your Hand
TTITLE10=Mardi Gras In New Orleans
TTITLE11=Hey Now Baby
TTITLE12=Her Mind Is Gone
TTITLE13=She Walks Right In
TTITLE14=Oh Well
TTITLE15=East St. Louis Baby
TTITLE16=Hadacol Bounce
TTITLE17=Gone So Long
TTITLE18=Curly Haired Baby
TTITLE19=Bald Head
EXTD=
EXTT0=
EXTT1=
EXTT2=
EXTT3=
EXTT4=
EXTT5=
EXTT6=
EXTT7=
EXTT8=
EXTT9=
EXTT10=
EXTT11=
EXTT12=
EXTT13=
EXTT14=
EXTT15=
EXTT16=
EXTT17=
EXTT18=
EXTT19=
PLAYORDER=
